<svg xmlns="http://www.w3.org/2000/svg" xmlns:xlink="http://www.w3.org/1999/xlink" contentStyleType="text/css" height="454px" preserveAspectRatio="none" style="width:1269px;height:454px;;" version="1.1" viewBox="0 0 1269 454" width="1269px" zoomAndPan="magnify"><defs></defs><g><g class="cluster" id="cluster_Sense Break System"><path d="M339.5,123.5 L501.7666,123.5 A3.75,3.75 0 0 1 504.2666,126 L511.2666,145.7969 L981.5,145.7969 A2.5,2.5 0 0 1 984,148.2969 L984,445 A2.5,2.5 0 0 1 981.5,447.5 L339.5,447.5 A2.5,2.5 0 0 1 337,445 L337,126 A2.5,2.5 0 0 1 339.5,123.5" fill="none" style="stroke:#000000;stroke-width:1.5;"></path><line style="stroke:#000000;stroke-width:1.5;" x1="337" x2="511.2666" y1="145.7969" y2="145.7969"></line><text fill="#000000" font-family="sans-serif" font-size="14" font-weight="bold" lengthAdjust="spacing" textLength="161.2666" x="341" y="138.4951">Sense Break System</text></g><g class="cluster" id="cluster_Backend Service"><rect fill="none" height="178" rx="2.5" ry="2.5" style="stroke:#181818;stroke-width:1;" width="190" x="1073" y="188.5"></rect><text fill="#000000" font-family="sans-serif" font-size="14" font-weight="bold" lengthAdjust="spacing" textLength="130.2861" x="1102.8569" y="203.4951">Backend Service</text></g><g class="entity" id="entity_UC1"><ellipse cx="443.3696" cy="247.4739" fill="#87CEFA" rx="90.3696" ry="20.4739" style="stroke:#000000;stroke-width:0.5;"></ellipse><text fill="#000000" font-family="sans-serif" font-size="14" lengthAdjust="spacing" textLength="142.5771" x="372.081" y="250.3206">Registrace uživatele</text></g><g class="entity" id="entity_UC_Validate"><ellipse cx="855.6565" cy="175.3313" fill="#87CEFA" rx="72.1565" ry="16.8313" style="stroke:#000000;stroke-width:0.5;"></ellipse><text fill="#000000" font-family="sans-serif" font-size="14" lengthAdjust="spacing" textLength="98.6016" x="803.3557" y="179.0789">Ověření údajů</text></g><g class="entity" id="entity_UC_Create"><ellipse cx="855.6965" cy="247.3393" fill="#87CEFA" rx="87.1965" ry="19.8393" style="stroke:#000000;stroke-width:0.5;"></ellipse><text fill="#000000" font-family="sans-serif" font-size="14" lengthAdjust="spacing" textLength="135.3652" x="788.0139" y="250.186">Vytvoření uživatele</text></g><g class="entity" id="entity_UC_AutoLogin"><ellipse cx="855.3467" cy="324.6693" fill="#87CEFA" rx="98.8467" ry="22.1693" style="stroke:#000000;stroke-width:0.5;"></ellipse><text fill="#000000" font-family="sans-serif" font-size="14" lengthAdjust="spacing" textLength="161.5127" x="774.5904" y="327.516">Automatické přihlášení</text></g><g class="entity" id="entity_UC_Redirect"><ellipse cx="855.4651" cy="406.393" fill="#87CEFA" rx="112.4651" ry="24.893" style="stroke:#000000;stroke-width:0.5;"></ellipse><text fill="#000000" font-family="sans-serif" font-size="14" lengthAdjust="spacing" textLength="191.2012" x="759.8645" y="409.2397">Přesměrování na přihlášení</text></g><g class="entity" id="entity_User modul"><rect fill="#F1F1F1" height="46.2969" rx="2.5" ry="2.5" style="stroke:#181818;stroke-width:0.5;" width="120.2129" x="1108" y="223.5"></rect><rect fill="#F1F1F1" height="10" style="stroke:#181818;stroke-width:0.5;" width="15" x="1208.2129" y="228.5"></rect><rect fill="#F1F1F1" height="2" style="stroke:#181818;stroke-width:0.5;" width="4" x="1206.2129" y="230.5"></rect><rect fill="#F1F1F1" height="2" style="stroke:#181818;stroke-width:0.5;" width="4" x="1206.2129" y="234.5"></rect><text fill="#000000" font-family="sans-serif" font-size="14" lengthAdjust="spacing" textLength="80.2129" x="1123" y="256.4951">User modul</text></g><g class="entity" id="entity_Auth Middleware"><rect fill="#F1F1F1" height="46.2969" rx="2.5" ry="2.5" style="stroke:#181818;stroke-width:0.5;" width="157.9063" x="1089" y="304.5"></rect><rect fill="#F1F1F1" height="10" style="stroke:#181818;stroke-width:0.5;" width="15" x="1226.9063" y="309.5"></rect><rect fill="#F1F1F1" height="2" style="stroke:#181818;stroke-width:0.5;" width="4" x="1224.9063" y="311.5"></rect><rect fill="#F1F1F1" height="2" style="stroke:#181818;stroke-width:0.5;" width="4" x="1224.9063" y="315.5"></rect><text fill="#000000" font-family="sans-serif" font-size="14" lengthAdjust="spacing" textLength="117.9063" x="1104" y="337.4951">Auth Middleware</text></g><g class="entity" id="entity_User"><ellipse cx="21.9551" cy="218" fill="#FFFFFF" rx="8" ry="8" style="stroke:#000000;stroke-width:0.5;"></ellipse><path d="M21.9551,226 L21.9551,253 M8.9551,234 L34.9551,234 M21.9551,253 L8.9551,268 M21.9551,253 L34.9551,268" fill="none" style="stroke:#000000;stroke-width:0.5;"></path><text fill="#000000" font-family="sans-serif" font-size="14" lengthAdjust="spacing" textLength="31.9102" x="6" y="282.4951">User</text></g><g class="entity" id="entity_GMN14"><path d="M269,6 L269,106.7969 A0,0 0 0 0 269,106.7969 L439.5,106.7969 L443.5,226.98 L447.5,106.7969 L618.3516,106.7969 A0,0 0 0 0 618.3516,106.7969 L618.3516,16 L608.3516,6 L269,6 A0,0 0 0 0 269,6" fill="#FEFFDD" style="stroke:#181818;stroke-width:0.5;"></path><path d="M608.3516,6 L608.3516,16 L618.3516,16 L608.3516,6" fill="#FEFFDD" style="stroke:#181818;stroke-width:0.5;"></path><text fill="#000000" font-family="sans-serif" font-size="13" lengthAdjust="spacing" textLength="111.0903" x="275" y="23.0669">Kroky registrace:</text><text fill="#000000" font-family="sans-serif" font-size="13" lengthAdjust="spacing" textLength="159.0913" x="275" y="38.1997">• Uživatel zadá formulář</text><text fill="#000000" font-family="sans-serif" font-size="13" lengthAdjust="spacing" textLength="328.3516" x="275" y="53.3325">• «include» Ověření údajů (validita e-mailu, hesla)</text><text fill="#000000" font-family="sans-serif" font-size="13" lengthAdjust="spacing" textLength="239.5225" x="275" y="68.4653">• «include» Vytvoření uživatele v DB</text><text fill="#000000" font-family="sans-serif" font-size="13" lengthAdjust="spacing" textLength="263.6689" x="275" y="83.5981">• «extend» Automatické přihlášení nebo</text><text fill="#000000" font-family="sans-serif" font-size="13" lengthAdjust="spacing" textLength="242.8613" x="283.2646" y="98.731">«extend» Přesměrování na přihlášení</text></g><g class="link" id="link_User_UC1"><path d="M38.43,247.5 C88.61,247.5 243.91,247.5 346.9,247.5" fill="none" id="User-to-UC1" style="stroke:#181818;stroke-width:1;"></path><polygon fill="#181818" points="352.9,247.5,343.9,243.5,347.9,247.5,343.9,251.5,352.9,247.5" style="stroke:#181818;stroke-width:1;"></polygon><text fill="#000000" font-family="sans-serif" font-size="13" lengthAdjust="spacing" textLength="169.3364" x="69" y="243.5669">Zadá jméno, e-mail, heslo</text></g><g class="link" id="link_UC1_UC_Validate"><path d="M515.45,235.04 C595.32,221.01 717.6404,199.5378 791.3804,186.5878" fill="none" id="UC1-to-UC_Validate" style="stroke:#181818;stroke-width:1;stroke-dasharray:7.0,7.0;"></path><polygon fill="#181818" points="797.29,185.55,787.7338,183.167,792.3654,186.4148,789.1175,191.0464,797.29,185.55" style="stroke:#181818;stroke-width:1;"></polygon><text fill="#000000" font-family="sans-serif" font-size="13" lengthAdjust="spacing" textLength="63.0068" x="649" y="197.5669">«include»</text></g><g class="link" id="link_UC1_UC_Create"><path d="M534.22,247.5 C603.86,247.5 693.8,247.5 762.49,247.5" fill="none" id="UC1-to-UC_Create" style="stroke:#181818;stroke-width:1;stroke-dasharray:7.0,7.0;"></path><polygon fill="#181818" points="768.49,247.5,759.49,243.5,763.49,247.5,759.49,251.5,768.49,247.5" style="stroke:#181818;stroke-width:1;"></polygon><text fill="#000000" font-family="sans-serif" font-size="13" lengthAdjust="spacing" textLength="63.0068" x="649" y="243.5669">«include»</text></g><g class="link" id="link_UC1_UC_AutoLogin"><path d="M513.59,260.47 C587.19,274.3 697.4331,295.0026 773.3131,309.2526" fill="none" id="UC1-to-UC_AutoLogin" style="stroke:#181818;stroke-width:1;stroke-dasharray:7.0,7.0;"></path><polygon fill="#181818" points="779.21,310.36,771.1029,304.7676,774.2959,309.4371,769.6263,312.6301,779.21,310.36" style="stroke:#181818;stroke-width:1;"></polygon><text fill="#000000" font-family="sans-serif" font-size="13" lengthAdjust="spacing" textLength="61.1851" x="650" y="282.5669">«extend»</text></g><g class="link" id="link_UC1_UC_Redirect"><path d="M489.75,265.12 C548.21,287.89 653.17,328.72 743,363.5 C760.99,370.47 775.0308,375.8938 792.7408,382.7138" fill="none" id="UC1-to-UC_Redirect" style="stroke:#181818;stroke-width:1;stroke-dasharray:7.0,7.0;"></path><polygon fill="#181818" points="798.34,384.87,791.3787,377.9029,793.674,383.0732,788.5038,385.3685,798.34,384.87" style="stroke:#181818;stroke-width:1;"></polygon><text fill="#000000" font-family="sans-serif" font-size="13" lengthAdjust="spacing" textLength="61.1851" x="650" y="324.5669">«extend»</text></g><g class="link" id="link_UC_Validate_User modul"><path d="M907.77,187.22 C962.81,199.81 1044.251,218.4326 1102.111,231.6626" fill="none" id="UC_Validate-to-User modul" style="stroke:#181818;stroke-width:1;stroke-dasharray:7.0,7.0;"></path><polygon fill="#181818" points="1107.96,233,1100.078,227.0945,1103.0858,231.8855,1098.2948,234.8932,1107.96,233" style="stroke:#181818;stroke-width:1;"></polygon><text fill="#000000" font-family="sans-serif" font-size="13" lengthAdjust="spacing" textLength="55.6372" x="1001" y="205.5669">používat</text></g><g class="link" id="link_UC_Create_User modul"><path d="M942.58,247.22 C995.17,247.05 1055.06,246.8593 1101.81,246.7093" fill="none" id="UC_Create-to-User modul" style="stroke:#181818;stroke-width:1;stroke-dasharray:7.0,7.0;"></path><polygon fill="#181818" points="1107.81,246.69,1098.7972,242.7189,1102.81,246.706,1098.8229,250.7189,1107.81,246.69" style="stroke:#181818;stroke-width:1;"></polygon><text fill="#000000" font-family="sans-serif" font-size="13" lengthAdjust="spacing" textLength="55.6372" x="1001" y="243.5669">používat</text></g><g class="link" id="link_UC_AutoLogin_Auth Middleware"><path d="M954.74,325.45 C998.01,325.87 1042.1303,326.2925 1082.8003,326.6825" fill="none" id="UC_AutoLogin-to-Auth Middleware" style="stroke:#181818;stroke-width:1;stroke-dasharray:7.0,7.0;"></path><polygon fill="#181818" points="1088.8,326.74,1079.8388,322.6539,1083.8002,326.6921,1079.7621,330.6535,1088.8,326.74" style="stroke:#181818;stroke-width:1;"></polygon><text fill="#000000" font-family="sans-serif" font-size="13" lengthAdjust="spacing" textLength="55.6372" x="1001" y="322.5669">používat</text></g><g class="link" id="link_UC_Redirect_Auth Middleware"><path d="M930.08,387.78 C977.88,375.62 1034.2853,361.2696 1082.9753,348.8796" fill="none" id="UC_Redirect-to-Auth Middleware" style="stroke:#181818;stroke-width:1;stroke-dasharray:7.0,7.0;"></path><polygon fill="#181818" points="1088.79,347.4,1079.0815,345.743,1083.9444,348.633,1081.0544,353.4959,1088.79,347.4" style="stroke:#181818;stroke-width:1;"></polygon><text fill="#000000" font-family="sans-serif" font-size="13" lengthAdjust="spacing" textLength="55.6372" x="1001" y="354.5669">používat</text></g></g></svg>